<svg width="140" height="220" viewBox="0 0 140 220" fill="none" xmlns="http://www.w3.org/2000/svg">
<path d="M-238.205 205.328C-233.398 238.789 -207.569 281.839 -172.068 267.194C-145.233 256.124 -176.049 228.794 -144.793 205.008C-113.536 181.222 -67.8364 178.944 -41.3724 204.773C-21.8847 223.793 -46.2905 249.303 -30.1028 270.634C7.10577 319.666 143.96 284.053 139.187 224.206C136.024 184.536 80.6662 188.161 57.636 154.707C29.654 114.059 64.7644 67.3295 25.139 35.2156C-4.82756 10.9296 -38.0412 -10.9115 -75.1813 7.18827C-123.416 30.6948 -9.51693 98.9263 -54.691 126.936C-75.6782 139.949 -93.2261 136.822 -118.371 137.833C-149.108 139.068 -167.407 117.009 -195.802 128.485C-230.218 142.395 -242.848 173 -238.205 205.328Z" fill="url(#paint0_linear_1_87)" fill-opacity="0.8"/>
<defs>
<linearGradient id="paint0_linear_1_87" x1="-267" y1="37.2354" x2="89.381" y2="343.927" gradientUnits="userSpaceOnUse">
<stop stop-color="#FF6FD8"/>
<stop offset="1" stop-color="#3813C2"/>
</linearGradient>
</defs>
</svg>
